<svg width="20" height="20" viewBox="0 0 20 20" fill="none" xmlns="http://www.w3.org/2000/svg">
<path fill-rule="evenodd" clip-rule="evenodd" d="M0.376558 1.89179C-0.0418605 1.47336 -0.0418605 0.794977 0.376558 0.376558C0.794978 -0.0418605 1.47338 -0.0418605 1.89179 0.376558L5.64695 4.13171C6.94386 3.41908 8.41835 2.91452 9.99992 2.91452C12.1885 2.91452 14.172 3.88065 15.7636 5.02738C17.3611 6.17826 18.6256 7.55542 19.3912 8.48068L19.3976 8.48851C19.7395 8.91392 19.9195 9.45301 19.9195 10C19.9195 10.547 19.7395 11.0861 19.3976 11.5115L19.3912 11.5194C18.6932 12.363 17.5802 13.5823 16.1785 14.6633L19.6234 18.108C20.0418 18.5264 20.0418 19.2049 19.6234 19.6233C19.2049 20.0417 18.5265 20.0417 18.1081 19.6233L0.376558 1.89179ZM12.8815 11.3663C13.0783 10.9522 13.1884 10.4889 13.1884 9.99991C13.1884 8.23899 11.7608 6.81148 9.99992 6.81148C9.51093 6.81148 9.04765 6.92155 8.6335 7.11828L12.8815 11.3663ZM0.608609 8.48068C1.06496 7.92912 1.69866 7.21699 2.47446 6.48795L12.6231 16.6366C11.7936 16.9167 10.9147 17.0856 9.99992 17.0856C7.81137 17.0856 5.82789 16.1194 4.23622 14.9727C2.63879 13.8218 1.37417 12.4446 0.608609 11.5194L0.602218 11.5115C0.260339 11.0861 0.0803343 10.547 0.0803343 10C0.0803343 9.45301 0.260339 8.91392 0.602218 8.48851L0.608609 8.48068Z" fill="#FCFCFC"/>
</svg>
